<svg width="32" height="32" viewBox="0 0 32 32" fill="none" xmlns="http://www.w3.org/2000/svg">
<g clip-path="url(#clip0_119_3189)">
<path d="M16.2253 13.7414L17.7067 11.1588L22.7387 10.8361L22.9147 10.5214L18.264 10.1988L19.3573 8.31342H27.984C30.6373 8.31342 32.5973 9.26675 31.8333 12.0468C31.6067 12.8974 30.528 15.0241 27.3587 15.9121C28.0347 15.9921 29.7053 16.7334 29.412 18.6548C28.9 22.0654 24.492 23.6868 22.0347 23.6868L11.8467 23.6948L11.34 21.7214L16.68 21.3481L16.8627 21.0321L11.068 20.6801L10.4453 18.3401L18.6827 17.8561L18.8653 17.5481L4.07067 16.6241L4.78267 15.3908L20.7133 14.3574L20.8973 14.0494L16.2253 13.7414ZM22.892 14.2548L24.3587 14.2468C25.3427 14.2401 26.3613 13.7934 26.736 12.8894C27.0813 12.0468 26.6187 11.3281 26.0027 11.3348H24.58L22.892 14.2548ZM21.1987 17.1814L19.4307 20.2548H21.1173C21.9027 20.2548 23.304 19.8654 23.736 18.7508C24.1387 17.7094 23.3987 17.1814 22.8853 17.1814H21.1987ZM8.34667 21.9268L7.32 23.6801L0 23.6934L0.712 22.4628L8.34667 21.9268ZM8.86 8.30542L14.7493 8.31342L15.1973 9.97742L8.16267 9.53742L8.86 8.30542ZM15.5267 11.2988L16.172 13.7414L6.116 13.0814L6.82 11.8548L15.5267 11.2988ZM10.4067 18.3401L9.13067 20.5548L2.03733 20.1521L2.74933 18.9201L10.4067 18.3401Z" fill="black"/>
</g>
<defs>
<clipPath id="clip0_119_3189">
<rect width="32" height="32" fill="white"/>
</clipPath>
</defs>
</svg>
