<svg width="32" height="32" viewBox="0 0 32 32" fill="none" xmlns="http://www.w3.org/2000/svg">
<g clip-path="url(#clip0_119_3180)">
<path d="M32.0002 10.4001L8.58949 20.3681C6.64816 21.1904 5.01794 21.6015 3.69883 21.6015C2.20549 21.6015 1.12238 21.0784 0.449493 20.0321C0.027271 19.3601 -0.0971734 18.5077 0.0761599 17.4748C0.250382 16.4419 0.710827 15.3406 1.45749 14.1708C2.07972 13.2241 3.1006 11.9797 4.52016 10.4375C4.03803 11.1954 3.68481 12.0281 3.47483 12.9015C3.10149 14.4944 3.43749 15.6641 4.48283 16.4108C4.9806 16.7593 5.66505 16.9335 6.53616 16.9335C7.23216 16.9335 8.01616 16.8215 8.88816 16.5975L32.0002 10.4001Z" fill="black"/>
</g>
<defs>
<clipPath id="clip0_119_3180">
<rect width="32" height="32" fill="white"/>
</clipPath>
</defs>
</svg>
